/* XPM */
static char *result[] = {
/* columns rows colors chars-per-pixel */
"64 64 221 2 ",
"   c #2C150D",
".  c #2D1911",
"X  c #391D13",
"o  c #24221D",
"O  c #3A231B",
"+  c #26272A",
"@  c #382924",
"#  c #3C3128",
"$  c #333232",
"%  c #3A3732",
"&  c #3C3A34",
"*  c #393939",
"=  c #54110A",
"-  c #5E140C",
";  c #5D1710",
":  c #64160D",
">  c #5C2317",
",  c #6C2613",
"<  c #6D391E",
"1  c #523429",
"2  c #473B36",
"3  c #69392A",
"4  c #783C27",
"5  c #663E34",
"6  c #49453B",
"7  c #59453D",
"8  c #794628",
"9  c #795129",
"0  c #63433B",
"q  c #73583B",
"w  c #3C3C43",
"e  c #474543",
"r  c #4B4B4A",
"t  c #544A48",
"y  c #5C544D",
"u  c #565554",
"i  c #5C5956",
"p  c #5B5B5B",
"a  c #6D5846",
"s  c #625C54",
"d  c #7C6048",
"f  c #68645C",
"g  c #756B5E",
"h  c #7B715C",
"j  c #656564",
"k  c #6C6A69",
"l  c #797368",
"z  c #787776",
"x  c #972419",
"c  c #992619",
"v  c #9C2A1C",
"b  c #94361E",
"n  c #A42E1E",
"m  c #A7301F",
"M  c #A9311F",
"N  c #9D2F20",
"B  c #853C23",
"V  c #863824",
"C  c #AB3320",
"Z  c #A73C23",
"A  c #B13722",
"S  c #B43A24",
"D  c #B93E26",
"F  c #894629",
"G  c #984628",
"H  c #8A5633",
"J  c #9C5836",
"K  c #A4482A",
"L  c #BA4228",
"P  c #A4502E",
"I  c #A65736",
"U  c #BB5535",
"Y  c #926935",
"T  c #95683C",
"R  c #AE643E",
"E  c #A17B34",
"W  c #C24529",
"Q  c #C6492B",
"!  c #CE4E2E",
"~  c #D04F2E",
"^  c #CF502F",
"/  c #D0502F",
"(  c #C04F35",
")  c #C95435",
"_  c #D05331",
"`  c #D25A36",
"'  c #D25D39",
"]  c #D3623B",
"[  c #B15D40",
"{  c #8E6541",
"}  c #87684B",
"|  c #956B45",
" . c #9C6D46",
".. c #98744A",
"X. c #8A785F",
"o. c #977B54",
"O. c #AB6848",
"+. c #A77948",
"@. c #B6764B",
"#. c #B77E55",
"$. c #BD7C53",
"%. c #887C64",
"&. c #967F65",
"*. c #D66941",
"=. c #D86941",
"-. c #CA724E",
";. c #D77549",
":. c #D77B4D",
">. c #AF894A",
",. c #B1844F",
"<. c #A58A5C",
"1. c #B88757",
"2. c #8A8168",
"3. c #93856C",
"4. c #8B8377",
"5. c #988B75",
"6. c #9B947E",
"7. c #B1956B",
"8. c #BDA061",
"9. c #C58457",
"0. c #C58D5C",
"q. c #D98353",
"w. c #DA8857",
"e. c #DB8B5A",
"r. c #DC915E",
"t. c #C68C62",
"y. c #D68D63",
"u. c #C69566",
"i. c #CA9463",
"p. c #CC9C6D",
"a. c #DC9562",
"s. c #DE9A65",
"d. c #D49768",
"f. c #DE9E68",
"g. c #CD9D71",
"h. c #DFA069",
"j. c #C8AA76",
"k. c #D2A876",
"l. c #CEB67E",
"z. c #E2A36B",
"x. c #E1A977",
"c. c #E4B17F",
"v. c #787980",
"b. c #868685",
"n. c #9F9883",
"m. c #8F9091",
"M. c #9B9A98",
"N. c #A09D9B",
"B. c #BAB39C",
"V. c #A4A3A2",
"C. c #A8A8A9",
"Z. c #AFB0B1",
"A. c #B5B5B4",
"S. c #B7B8B8",
"D. c #BDBDBD",
"F. c #D8AB85",
"G. c #D6B688",
"H. c #D5B48D",
"J. c #DCBD8C",
"K. c #CCB896",
"L. c #D7BA95",
"P. c #E5B486",
"I. c #E6BA8C",
"U. c #E7BD91",
"Y. c #E8B798",
"T. c #C3BBA4",
"R. c #D8C68A",
"E. c #DEC293",
"W. c #D8C59B",
"Q. c #E0C08F",
"!. c #E1C493",
"~. c #E8C094",
"^. c #E9C499",
"/. c #E4C998",
"(. c #E5CB9A",
"). c #E5D199",
"_. c #E8D29E",
"`. c #D7C9A8",
"'. c #DFD0AA",
"]. c #D6CDB3",
"[. c #E9CDA9",
"{. c #EAD5A2",
"}. c #ECD8A5",
"|. c #ECD3AD",
" X c #EDDBAB",
".X c #EED5B1",
"XX c #EDDBB5",
"oX c #E0D6BA",
"OX c #E3DABE",
"+X c #EEDDBA",
"@X c #F0D7B3",
"#X c #F2DAB5",
"$X c #F0E1B6",
"%X c #F2E3BC",
"&X c #F6E8BF",
"*X c #C4C4C4",
"=X c #CCCCCC",
"-X c #CFD0D1",
";X c #D4D4D4",
":X c #D8D7D7",
">X c #DBDBDB",
",X c #E6DDC1",
"<X c #EDE2C4",
"1X c #F3E5C2",
"2X c #F5E9C6",
"3X c #F3E7C8",
"4X c #F7EDCF",
"5X c #F8EECF",
"6X c #F7EED0",
"7X c #F8EED0",
"8X c #FBF0D1",
"9X c #E3E3E3",
"0X c #E7E8E8",
"qX c #EBEBEB",
"wX c #E4E7F2",
"eX c #EAEEF9",
"rX c #EEF1FA",
"tX c #F4F4F4",
"yX c #F6F7FA",
"uX c #F7F8FA",
"iX c #FFFFFF",
/* pixels */
"iXiXiXiXiXiXiXiXiXiXiXiXiXiXiXiXiXiXiXiXiXiXiXiXiXiXiXiXiXiXiXiXiXiXiXiXiXiXiXiXiXiXiXiXiXiXiXiXiXiXiXiXiXiXiXiXiXiXiXiXiXiXiXiX",
"iXiXiXiXiXiXiXiXiXiXiXiXiXiXiXiXiXiXiXiXiXiXiXiXiXiXiXiXiXiXiXiXiXiXiXiXiXiXiXiXiXiXiXiXiXiXiXiXiXiXiXiXiXiXiXiXiXiXiXiXiXiXiXeX",
"iXiXiXiXiXiXiXiXiXiXiXiXiXiXiXiXiXiXiXiXiXiXiXiXiXiXiXiXiXiXiXiXiXiXiXiXiXiXiXiXiXiXiXiXiXiXiXiXiXiXiXiXiXiXiXiXiXiXiXiXiXiXiXiX",
"iXiXiXiXiXiXiXiXiXiXiXiXiXiXiXiXiXiXiXiXiXiXiXiXiXiXiXiXiXiXiXiXiXiXiXiXiXiXiXiXiXiXiXiXiXiXiXiXiXiXiXiXiXiXiXiXiXiXiXiXiXiXiXyX",
"iXiXiXiXiXiXiXiXiXiXiXiXiXiXiXiXiXiXiXiXiXiXiXiXiXiXiXiXiXiXiXiXiXiXiXiXiXiXiXiXiXiXiXiXiXiXiXiXiXiXiXiXiXiXiXiXiXiXiXiXiXiXiXeX",
"iXiXiXiXiXiXiXiXiXiXiXiXiXiXiXiXiXiXiXiXiXiXiXiXiXiXiXiXiXiXiXiXiXiXiXiXiXiXiXiXiXiXiXiXiXiXiXiXiXiXiXiXiXiXiXiXiXiXiXiXiXiXiXiX",
"iXiXiXiXiXiXiXiXiXiXiXiXiXiXiXiXiXiXiXiXiXiXiXiXiXiXiXiXiXiXiXiXiXiXiXiXiXiXiXiXiXiXiXiXiXiXiXiXiXiXiXiXiXiXiXiXiXiXiXiXiXiXiXeX",
"iXiXiXiXiXiXiXiXiXiXiXiXiXiXiXiXiXiXiXiXiXiXiXiXiXiXiXiXiXiXiXiXiXiXiXiXiXiXiXiXiXiXiXiXiXiXiXiXiXiXiXiXiXiXiXiXiXiXiXiXiXiXiXuX",
"iXiXiXiXiXiXiXiXiXiXiXiXiXiXiXiXiXiXiXiXiXiXiXiXiXiXiXiXiXiXiXiXiXiXiXiXiXiXiXiXiXiXiXiXiXiXiXiXiXiXiXiXiXiXiXiXiXiXiXiXiXiXiXiX",
"iXiXiXiXiXiXiXiXiXiXiXiXiXiXiXiXiXiXiXiXiXiXiXiXiXiXiXiXiXiXiXiXiXiXiXiXiXiXiXiXiXiXiXiXiXiXiXiXiXuXtXyXiXiXiXiXiXiXiXiXiXiXiXeX",
"iXiXiXiXiXiXiXiXiXiXiXiXiXiXiXiXiXiXiXiXiXiXiXiXiXiXiXiXiXiXiXiXiXiXiXiXiXuXuXuXuXuXtXuXuXuXyXuXuX=Xe k qXiXiXiXiXiXiXiXiXiXiXiX",
"iXiXiXiXiXiXiXiXiXiXiXiXiXiXiXiXiXiXiXiXiXiXiXiXiXiXiXiXiXiXiXiXiXiXiXiX;Xu t t r r r r r r r r r 6 d %.r z yXuXiXiXiXiXiXiXiXyX",
"iXiXiXiXiXiXiXiXiXiXiXiXiXiXiXiXiXiXiXiXiXiXiXiXiXiXiXiXiXiXiXiXiXiX>Xj s 3.3.&.{ T H B { { { { H 4 H.`.5.%.i b.uXiXiXiXiXiXiXeX",
"iXiXiXiXiXiXiXiXiXiXiXiXiXiXiXiXiXiXiXiXiXiXiXiXiXiXiXiXiXiXiXiX9Xk j %.5..X#X[.z.h.r.' :.a.;.*.U [ |..X+XL.&.l j m.uXiXiXiXiXiX",
"iXiXiXiXiXiXiXiXiXiXiXiXiXiXiXiXiXiXiXiXiXiXiXiXiXiXiXiXiXiXiXwXz g 3..X#X.X.X|.U.P.s.:.q.e.! C C y.|..X.X.X#XL.h g M.iXiXiXiXrX",
"iXiXiXiXiXiXiXiXiXiXiXiXiXiXiXiXiXiXiXiXiXiXiXiXiXiXiXiXiXiX0X%.} [.~.~..X.X.X.X.X|.I.I.I.x.;.U -.Y..X.X.X.X@X.X#XK.g V.uXiXiXyX",
"iXiXiXiXiXiXiXiXiXiXiXiXiXiXiXiXiXiXiXiXiXiXiXiXiXiXiXiXiXiX=X1 d.P.f.x.U.~.~.~.~.~.~.~.^.[.P.P.c..X.X.X.X.X|.~.^.XXK.g Z.iXiXiX",
"iXiXiXiXiXiXiXiXiXiXiXiXiXiXiXiXiXiXiXiXiXiXiXiXiXiXiXiXiXqXm.q d.h.h.h.s.q.q.q.q.q.q.w.x.U.^.P.a.U.^.Y.^.~.I.s.x.~.^.7.a D.iXeX",
"iXiXiXiXiXiXiXiXiXiXiXiXiXiXiXiXiXiXiXiXiXiXiXiXiXiXiXiXiX=X# i.h.w.q.e.:._ _ / / / ! ' w.h.h.a.;.e.s.e.e.h.h.h.h.h.h.z. .r tXuX",
"iXiXiXiXiXiXiXiXiXiXiXiXiXiXiXiXiXiXiXtX*XD.D.D.D.D.D.=XtXN.1 q.q._ _ _ ! Q W W ~ / ~ _ ;.s.h.z.e.] :._ ] r.h.h.s.h.h.z.@.y -XuX",
"iXiXiXiXiXiXiXiXiXiXtX-X;XuXiXiXiXiXtXA.6 % % & & & % u V.7 U _ / / ^ Q D v c m ! ! Q ] a.h.f.e.q._ _ ! ! ] a.z.f.h.h.h.h.| p wX",
"iXiXiXiXiXiXiXiXiXiX9Xw * 0XiXiXtX9XS.i K.OX,XOXOXOXOXT.s H.s.' ! Q L v v c c n Q W A ' a.a.q.` _ ! ~ ~ / / ] a.h.h.h.h.h.+.y >X",
"iXiXiXiXiXiXiXiXiXiXyX].* -XiXiX:X$ r ].4X6X6X6X6X5X6X3XOX2X.Xy.) m n c c c c c C ! ! ^ ` ' ' ! ! ! / / ! / ` ] a.s.h.f.a.a.| w ",
"iXiXiXiXiXiXiXiXiXiXiX>X+ e 0XiX;X% K.4X4X6X4X6X6X6X6X6X6X4X2X+XP.) v c c c c c n ! ! ! ' a.:.` _ _ ! / / ] :._ ` *.a.w.' ;. .+ ",
"iXiXiXiXiXiXiXiXiXiXiXuXA.6 >XiX=X6 OX6X4X4X6X6X4X4X4X6X6X4X4X4X1XY.( N x c c n Q ! / ~ ] e.' ' :./ ! / ~ _ ` / ! _ ' ' ~ *. .$ ",
"iXiXiXiXiXiXiXtXtXuXuXiXuXZ.j *Xf B.3X6X4X4X4X4X5X6X4X4X4X4X4X4X6X3XH.K c c x n ! / ^ ! _ ' ^ _ ' / ! / / ! ! ~ _ ! ! ! ! =. .+ ",
"iXiXiXiXiXiX9Xp r r j 0XiX;Xo 6 2.<X6X6X4X6X4X6X4X4X6X4X4X7X4X4X4X6X3XF.D x n W ~ / / / ! ! ~ ~ / ! / / / / / / ! _ ~ ~ ! =. .$ ",
"iXiXiXiX0Xk p 3.n.n.6.s u s q 9 8.1X4X6X4X6X4X5X6X6X5X4X4X4X6X6X4X4X6X%Xy.N N A ! / / / / / ~ / / / / / / / / / _ ! ~ ~ ! *.| $ ",
"iXiX0Xz j %.6.$X4X7X<X6.X.2.,.Y >.}.5X5X5X5X4X4X4X4X4X4X4X6X4X4X4X4X4X4X[.[ N c A ~ ~ / / Q S ! / / / ~ / / / / / / / ~ ! =. .+ ",
"iXqX4.h 3.OX6X6X6X4X4X4X&X$XG.+.E l.2X5X%X2X4X4X4X6X7X4X4X4X6X4X6X4X4X6X<Xg.N x n ! Q S S C m ! / / / / Q D Q S D ! / ~ ! =. .$ ",
"iX>X& `.8X6X6X4X4X4X4X6X4X4X2XG.>.>. X$X X2X7X6X4X4X7X4X6X6X4X4X4X4X4X4X6X^.U x n ! W c c x m ! / / / / W m W v D ~ ~ ~ ! *. .+ ",
"tXM.h OX6X6X6X6X6X4X4X4X4X4X4X1Xk.>.l.}.%X5X5X4X6X4X4X4X4X4X4X6X4X6X6X6X6X,Xt.N n D A c x N S ! / / / / Q D Q D ~ / ~ ! ! U } v.",
">X2 W.5X4X6X6X4X6X4X6X4X4X4X4X4X).i.u.Q.%X4X4X4X1X4X6X4X4X4X4X4X4X6X6X4X4X3XL.C x c x c x n ! ~ / / / ^ / ^ Q W ! / ~ ~ / b r yX",
"V.j oX7X5X4X4X4X4X4X4X4X4X4X4X2X(.i.0.p.W.|.2X4X X%X2X4X4X4X7X6X4X4X4X4X6X6X[.I c c c c c n ! / / / / / / / W C / Q Q ~ _ N r wX",
"+ `.5X4X6X4X7X4X4X7X4X4X4X4X4X2X_.k.g.8.j.u.J..X}.}. X5X6X4X4X4X4X4X6X6X6X6XOX-.c c c x c C ~ / / / / / / / Q A ! D m ~ Q 4 z tX",
"o ].7X4X6X4X4X4X4X4X4X4X4X4X4X2X}._.E.j.1.>.H 1.!.{. X2X6X5X6X4X6X4X4X4X6X6X+X#.N c c c m ! ~ / / / / / / ^ ! ! D c m _ N t qXiX",
"o ].6X6X4X4X6X6X6X6X4X5X4X4X4X4X X/.0.1.>.<.9 H p._.$X4X4X6X4X4X4X4X4X6X6X6X+X9.N x c x n ! / / / / / / / ^ / W n c M Q V j uXeX",
"o ].6X4X6X5X4X4X4X4X4X6X5X4X6X4X2X!.J ..<.8.<.| j.}.2X4X4X4X5X6X4X5X4X4X6X6X3XF.N x c c n ! / / ^ / / / / / ! Q c c C b t 9XiXiX",
"o ].6X6X6X4X4X4X4X4X4X6X4X4X5X4X2X!.J 8 2.<.G.G.k.}.4X4X4X6X4X6X6X4X4X4X6X4X3XF.N c c c m ! / / / / / / ^ / / ! D c C V i tXiXyX",
"o ].6X6X4X4X6X7X4X6X4X4X4X4X4X4X5X|.#.8 <.W.l.k.(.%X4X4X4X7X4X4X6X4X4X5X4X4X4XF.N c c n Q ! / / / / / / / / ! / W A b 7 :XiXiXrX",
"o W.4X6X6X6X4X4X4X6X4X4X4X6X6X4X7X2XJ.o.7.R.R.). X2X5X5X4X4X6X4X4X4X6X4X4X6X+Xt.v c c C ! ^ / / / / / / / / / / ! Q b r uXiXiXiX",
"V.s oX6X6X4X4X6X4X6X4X6X4X4X4X4X4X4X1X'.E.)._._. X5X5X5X5X4X4X4X5X4X6X4X6X6XXX$.c c v L ^ / / / / / / / / / / / ~ Z 0 *XiXiXiXeX",
";X& ].6X6X4X4X6X4X4X6X4X6X6X4X4X4X4X4X4X&X&X&X%X}.$X4X6X4X4X4X6X4X6X4X4X6X6X.XI c c v S ! ^ / / / / / / ~ / ~ / Z 0 D.iXiXiXiXuX",
"tXM.l <X4X4X4X4X6X4X4X4X4X4X5X4X4X4X4X4X4X6X6X2X).G.$X4X4X4X4X5X4X4X4X7X6X6XY.G c c c n ! / / / / / / / ~ / ~ K 5 Z.uXiXiXiXiXiX",
"iX>X& `.4X5X5X6X4X4X6X6X4X6X6X4X6X4X4X4X4X4X4X$X/.0.1.L.$X$X$X$X4X4X%X4X5X+X$.N c c c v D ~ ^ / / ~ ~ ~ _ L > 3 V.uXiXiXiXiXiXeX",
"iXqXb.2.OX8X4X6X4X4X4X4X4X4X4X4X4X4X6X6X6X4X4X$X[.1.G  .l._.}. X4X2X$X%X'.X.G c v c c c v S S S D D W L , 3 z M.iXiXiXiXiXiXiXiX",
"iXiX>X% K.4X6X4X4X4X6X4X6X4X4X6X4X6X4X4X4X4X4X4X%Xk.F < Y j.J.}.%X%X%XR.%.i > = = = : c c c c x = = - 3 j m.uXiXiXiXiXiXiXiXiXyX",
"iXiX0Xg } W.%X4X6X4X4X4X6X4X4X6X4X4X6X4X4X4X4X4X2X!.Y 9 F T $.k.k.Q.G.2.4.-Xj p p p t ; - - - > i p i b.uXiXiXiXiXiXiXiXiXiXiXeX",
"iXiXiX0Xs } !.3X6X6X4X6X4X4X6X4X4X6X4X4X4X6X5X4X2X(.1.T E $.K G K @.q z tXiXiXiXiXiX;Xu r t r z tXiXiXiXiXiXiXiXiXiXiXiXiXiXiXiX",
"iXiXiXiX9Xs o.[.2X6X6X6X4X4X6X4X4X6X4X6X4X4X4X4X2X(.0.R 9.9.K K G < k qXiXiXiXiXiXiXiXuXiXuXuXuXiXiXiXiXiXiXiXiXiXiXiXiXiXiXiXeX",
"iXiXiXiXiX>Xy o.H.XX2X6X6X4X4X4X6X6X4X4X6X4X4X4X2X).i.0.0.9.G 4 < s 0XiXiXiXiXiXiXiXiXiXiXiXiXiXiXiXiXiXiXiXiXiXiXiXiXiXiXiXiXuX",
"iXiXiXiXiXiX;X7 F t.!.+X3X4X4X4X3X4X4X3X4X4X4X4X%X!.i.0.9.@.4 @ y 9XiXiXiXiXiXiXiXiXiXiXiXiXiXiXiXiXiXiXiXiXiXiXiXiXiXiXiXiXiXiX",
"iXiXiXiXiXiXiX=X2 B J i.^.1X3X3X#X4X2X$X3X4X4X+X!.t.1.9.#.4 t :XqXuXiXiXiXiXiXiXiXiXiXiXiXiXiXiXiXiXiXiXiXiXiXiXiXiXiXiXiXiXiXeX",
"iXiXiXiXiXiXiXuX*X# X F I p./.{.+X2X3X1X3X1X^.i.I P P G 4 7 ;XiXiXiXiXiXiXiXiXiXiXiXiXiXiXiXiXiXiXiXiXiXiXiXiXiXiXiXiXiXiXiXiXiX",
"iXiXiXiXiXiXiXiXuX:XA.@ O F I J O.u.g.p.p.i.R G G G B . 2 =XuXiXiXiXiXiXiXiXiXiXiXiXiXiXiXiXiXiXiXiXiXiXiXiXiXiXiXiXiXiXiXiXiXuX",
"iXiXiXiXiXiXiXiXiXiXuX=XC.@   . O G P P J P B . .   1 A.-XiXiXiXiXiXiXiXiXiXiXiXiXiXiXiXiXiXiXiXiXiXiXiXiXiXiXiXiXiXiXiXiXiXiXeX",
"iXiXiXiXiXiXiXiXiXiXiXiXtXD.A.S.M.O         1 C.S.A.*XuXiXiXiXiXiXiXiXiXiXiXiXiXiXiXiXiXiXiXiXiXiXiXiXiXiXiXiXiXiXiXiXiXiXiXiXiX",
"iXiXiXiXiXiXiXiXiXiXiXiXiXiXiXiXtXZ.C.C.C.C.S.uXiXiXiXiXiXiXiXiXiXiXiXiXiXiXiXiXiXiXiXiXiXiXiXiXiXiXiXiXiXiXiXiXiXiXiXiXiXiXiXrX",
"iXiXiXiXiXiXiXiXiXiXiXiXiXiXiXiXiXiXiXiXiXiXiXiXiXiXiXiXiXiXiXiXiXiXiXiXiXiXiXiXiXiXiXiXiXiXiXiXiXiXiXiXiXiXiXiXiXiXiXiXiXiXiXuX",
"iXiXiXiXiXiXiXiXiXiXiXiXiXiXiXiXiXiXiXiXiXiXiXiXiXiXiXiXiXiXiXiXiXiXiXiXiXiXiXiXiXiXiXiXiXiXiXiXiXiXiXiXiXiXiXiXiXiXiXiXiXiXiXiX",
"iXiXiXiXiXiXiXiXiXiXiXiXiXiXiXiXiXiXiXiXiXiXiXiXiXiXiXiXiXiXiXiXiXiXiXiXiXiXiXiXiXiXiXiXiXiXiXiXiXiXiXiXiXiXiXiXiXiXiXiXiXiXiXeX",
"iXiXiXiXiXiXiXiXiXiXiXiXiXiXiXiXiXiXiXiXiXiXiXiXiXiXiXiXiXiXiXiXiXiXiXiXiXiXiXiXiXiXiXiXiXiXiXiXiXiXiXiXiXiXiXiXiXiXiXiXiXiXiXiX",
"iXiXiXiXiXiXiXiXiXiXiXiXiXiXiXiXiXiXiXiXiXiXiXiXiXiXiXiXiXiXiXiXiXiXiXiXiXiXiXiXiXiXiXiXiXiXiXiXiXiXiXiXiXiXiXiXiXiXiXiXiXiXiXyX",
"iXiXiXiXiXiXiXiXiXiXiXiXiXiXiXiXiXiXiXiXiXiXiXiXiXiXiXiXiXiXiXiXiXiXiXiXiXiXiXiXiXiXiXiXiXiXiXiXiXiXiXiXiXiXiXiXiXiXiXiXiXiXiXeX"
};
