/* XPM */
static char *result[] = {
/* columns rows colors chars-per-pixel */
"64 64 161 2 ",
"   c #040404",
".  c gray2",
"X  c #060606",
"o  c #6E510D",
"O  c #7F6023",
"+  c #9C721A",
"@  c #A77915",
"#  c #8D6A24",
"$  c #9E7721",
"%  c #997831",
"&  c #A47A24",
"*  c #A37C27",
"=  c #A57D27",
"-  c #A67E26",
";  c #A77F26",
":  c #AC7F20",
">  c #AD7F20",
",  c #A87F27",
"<  c #A77F28",
"1  c #947D4E",
"2  c #B38117",
"3  c #B58116",
"4  c #B38118",
"5  c #B4841F",
"6  c #B9851D",
"7  c #BC871E",
"8  c #BB881E",
"9  c #BA891E",
"0  c #BC881C",
"q  c #BD891D",
"w  c #BC881E",
"e  c #BD881E",
"r  c #BD891E",
"t  c #BD881F",
"y  c #BC891F",
"u  c #BD891F",
"i  c #BE891F",
"p  c #BE8B1F",
"a  c #A88027",
"s  c #A98128",
"d  c #AA822A",
"f  c #B58520",
"g  c #B68620",
"h  c #B88821",
"j  c #BA8920",
"k  c #BC8820",
"l  c #BF8C20",
"z  c #BF8E21",
"x  c #B38828",
"c  c #B58B2E",
"v  c #BB8F2F",
"b  c #B78E33",
"n  c #BF9334",
"m  c #C18C1F",
"M  c #C08D1F",
"N  c #C18E1F",
"B  c #C08B20",
"V  c #C18E21",
"C  c #C59121",
"Z  c #C89421",
"A  c #C99523",
"S  c #CD9924",
"D  c #C9992A",
"F  c #D09B25",
"G  c #D19C26",
"H  c #D29D26",
"J  c #D49F27",
"K  c #D59F28",
"L  c #D69F28",
"P  c #C29532",
"I  c #C29533",
"U  c #C79935",
"Y  c #CB9D36",
"T  c #C89B3A",
"R  c #CA9C38",
"E  c #D19F30",
"W  c #D6A028",
"Q  c #D7A129",
"!  c #DBA629",
"~  c #D8A42A",
"^  c #DDA62A",
"/  c #DBA72C",
"(  c #D8A52F",
")  c #DAA62E",
"_  c #DBA72E",
"`  c #DCA82C",
"'  c #DCA82D",
"]  c #DEA92D",
"[  c #DFAA2C",
"{  c #D5A232",
"}  c #D7A533",
"|  c #D1A237",
" . c #DCA831",
".. c #D2A339",
"X. c #D3A43A",
"o. c #D6A63A",
"O. c #D7A73A",
"+. c #D7A73C",
"@. c #D9A73B",
"#. c #D9A93C",
"$. c #D8A83D",
"%. c #DBA93C",
"&. c #DAA83D",
"*. c #DAAA3C",
"=. c #E4AB2B",
"-. c #E2AC2B",
";. c #E0AA2C",
":. c #E0AB2C",
">. c #E1AB2C",
",. c #E1AB2D",
"<. c #E0AB2E",
"1. c #E0AB2F",
"2. c #E1AC2D",
"3. c #E3AD2C",
"4. c #E2AC2D",
"5. c #E1AC2F",
"6. c #E2AD2E",
"7. c #E3AD2E",
"8. c #E3AE2E",
"9. c #E4AE2C",
"0. c #E5AF2D",
"q. c #E7AF2D",
"w. c #E6AD2E",
"e. c #E4AE2E",
"r. c #E5AF2F",
"t. c #E0AC31",
"y. c #E2AD30",
"u. c #E3AD30",
"i. c #E4AE30",
"p. c #AB8D55",
"a. c #A38859",
"s. c #A68B58",
"d. c #A68B59",
"f. c #A98C58",
"g. c #A78F65",
"h. c #BEA481",
"j. c #BDA582",
"k. c #C0A580",
"l. c #C1A681",
"z. c #C0A683",
"x. c #D9C8AB",
"c. c #E7D6AD",
"v. c #E5D4AE",
"b. c #E5D5AE",
"n. c #E7D7AE",
"m. c #E6D6AF",
"M. c #E7D6AF",
"N. c #E8D8AF",
"B. c #E6D6B0",
"V. c #E7D7B0",
"C. c #E7D7B1",
"Z. c #E9D9B0",
"A. c #E8D8B1",
"S. c #E4E3D3",
"D. c #E8E6D5",
"F. c #EBEADC",
"G. c #F4F3E7",
"H. c #F5F5E9",
"J. c #F5F5EA",
"K. c gray94",
"L. c None",
/* pixels */
"L.L.L.L.L.L.L.L.L.L.L.L.L.L.L.L.L.L.L.L.L.L.L.L.L.L.L.L.L.L.L.L.L.L.L.L.L.L.L.L.L.L.L.L.L.L.L.L.L.L.L.L.L.L.L.L.L.L.L.L.L.L.L.L.",
"L.L.L.L.L.L.L.L.L.L.L.L.L.L.L.L.L.L.L.L.L.L.L.L.L.L.L.L.L.L.L.L.L.L.L.L.L.. . L.L.L.L.L.L.L.L.L.L.L.L.L.L.L.L.L.L.L.L.L.L.L.L.L.",
"L.L.L.L.L.L.L.L.L.L.L.L.L.L.L.L.L.L.L.L.L.L.L.L.L.L.L.L.L.L.L.. L.L.L.L.L.. . L.L.L.L.L.L.L.L.L.L.L.L.L.L.L.L.L.L.L.L.L.L.L.L.L.",
"L.L.L.L.L.L.L.L.L.L.L.L.L.L.L.L.L.L.L.L.L.L.L.L.L.L.L.L.L.L.L.. . L.L.L.. . L.L.L.L.L.L.L.L.L.L.L.L.L.L.L.L.L.L.L.L.L.L.L.L.L.L.",
"L.L.L.L.L.L.L.L.L.L.L.L.L.L.L.L.L.L.L.L.L.L.L.L.L.L.L.L.L.L.L.. . L.L.L.. . L.L.L.L.L.. L.L.L.L.L.L.L.L.L.L.L.L.L.L.L.L.L.L.L.L.",
"L.L.L.L.L.L.L.L.L.L.L.L.L.L.L.L.L.L.L.L.L.L.L.L.L.L.L.L.L.L.L.L.. . L.. . L.L.L.. . . . L.L.L.L.L.L.L.L.L.L.L.L.L.L.L.L.L.L.L.L.",
"L.L.L.L.L.L.L.L.L.L.L.L.L.L.L.L.L.L.L.L.L.L.L.L.L.L.L.L.L.L.L.L.. . . . . L.L.. . . L.L.L.L.L.L.L.L.L.L.L.L.L.L.L.L.L.L.L.L.L.L.",
"L.L.L.L.L.L.L.L.L.L.L.L.L.L.L.L.L.L.L.L.L.L.L.L.L.L.L.L.L.L.L.L.L.. . . . . . . L.L.L.L.L.L.L.L.L.L.L.L.L.L.L.L.L.L.L.L.L.L.L.L.",
"L.L.L.L.L.L.L.L.L.L.L.L.L.L.L.L.L.L.L.L.L.L.L.L.. . . . . . . . . . . . . . . L.L.L.L.L.L.L.L.L.L.L.L.L.L.L.L.L.L.L.L.L.L.L.L.L.",
"L.L.L.L.L.L.L.L.L.L.L.L.L.L.L.L.L.L.L.L.L.. . . . o o o o e.e.e.e.e.e.e.e.o . . . . . L.L.L.L.L.L.L.L.L.L.L.L.L.L.L.L.L.L.L.L.L.",
"L.L.L.L.L.L.L.L.L.L.L.L.L.L.L.L.L.L.. . . . o o o o _ 3.q.q.q.0.0.e.e.w.i.e.e.< o o . . . . L.L.L.L.L.L.L.L.L.L.L.L.L.L.L.L.L.L.",
"L.L.L.L.L.L.L.L.L.L.L.L.L.L.L.L.L.. . U Y o o t.r.0.e.9.e.e.e.e.e.e.e.9.9.9.e.< < < o o . . . . L.L.L.L.L.L.L.L.L.L.L.L.L.L.L.L.",
"L.L.L.L.L.L.L.L.L.L.L.L.L.L.L.L.. . O.R o o e.e.9.e.e.e.e.e.e.e.e.e.e.e.e.e.9.e.e.< < o o o . . L.L.L.L.L.L.L.L.L.L.L.L.L.L.L.L.",
"L.L.L.L.L.L.L.L.L.L.L.L.L.L.L.. . Y o o 6.e.e.9.7.e.e.e.e.e.e.e.e.e.9.9.9.9.9.e.e.e.< < < o o . . L.L.L.L.L.L.L.L.L.L.L.L.L.L.L.",
"L.L.L.L.L.L.L.L.L.L.L.L.L.L.. . o o e.. . . . . 9.7.e.e.e.e.e.e.9.9.e.7.7.8.7.7.e.e.e.< o o o o . . L.L.L.L.L.L.L.L.L.L.L.L.L.L.",
"L.L.L.L.L.L.L.L.L.L.L.L.L.. . | o e.. . K.K.K.. . e.e.e.e.e.e.9.e.3.. . . . . . y.o o e.o / o o o . . L.L.L.L.L.L.L.L.L.L.L.L.L.",
"L.L.L.L.L.L.L.L.L.L.L.L.. . P o o . . K.K.J.K.K.. . 9.e.e.e.9.e.) . . K.K.K.K.. . o < o o 4.e.o q.o . . L.L.L.L.L.L.L.L.L.L.L.L.",
"L.L.L.L.L.L.L.L.L.L.L.L.. b %.o o . K.K.. . H.K.K.. 9.e.e.e.9.1.. . F.K.K.K.K.K.. . o < o e.8.e.e.o o . L.L.L.L.L.L.L.L.L.L.L.L.",
"L.L.L.L.L.L.L.L.L.L.L.. . o.&.o e.. K.K.. . H.K.. . e.e.7.9.e.E . K.K.K.. . K.K.K.. o o >.e.e.e.e.3.o . . L.L.L.L.L.L.L.L.L.L.L.",
"L.L.L.L.L.L.L.L.L.L.L.. n #.$.o e.. . D.K.K.K.K.. { _ 3.e.9.e.E . K.K.G.. . H.K.K.. o o < e.e.e.7.e.=.o . L.L.L.L.L.L.L.L.L.L.L.",
"L.L.L.L.L.L.L.L.L.L.. . @.$.$.o e.2.. . . K.K.. . . . . . u.e.,.. . K.K.K.K.K.S.. . o o o e.e.e.e.e.0.o . . L.L.L.L.L.L.L.L.L.L.",
"L.L.L.L.L.L.L.L.L.L.. % *.+.$.o e.w. .e.. . . . V.V.V.V.. . . ( } . . . . . . . . e.e.x o ,.e.e.e.e.e.;.o . . L.L.L.L.L.L.L.L.L.",
"L.L.L.L.L.L.L.L.L.L.. d o.$.$.o e.e.e.. . V.V.V.V.V.V.V.V.V.. . . . . . . e.e.e.e.e.< < o [ e.e.e.e.e.e.L o . . L.L.L.L.L.L.L.L.",
"L.L.L.L.L.L.L.L.L.L.. $ v X.$.o o e.e.. A.V.V.b.V.V.V.V.V.V.V.V.V.V.V.V.. e.5.e.e.] < < o [ e.e.e.e.e.e.:.Z o . L.L.L.L.L.L.L.L.",
"L.L.L.L.L.L.L.L.L.L.. . , I $.+.o e.. V.V.V.. V.V.. V.V.V.V.V.V.V.A.V.V.. e.e.e.e.< < < o [ e.e.e.e.e.e.e.G o . . L.L.L.L.L.L.L.",
"L.L.L.L.L.L.L.L.L.L.L.. a c ..T . . V.V.m.V.V.V.V.V.V.V.m.V.m.m.V.V.V.V.. e.e.< < < < < o [ e.e.e.e.e.e.e.^ V o . . L.L.L.L.L.L.",
"L.L.L.L.L.L.L.L.L.L.L.. . s . . . V.V.B.V.V.V.V.V.V.V.V.V.m.V.V.V.V.V.V.. < < < < < < < o [ e.e.e.e.e.e.e.2.A q o . L.L.L.L.L.L.",
"L.L.L.L.L.L.L.L.L.L.L.. . . . c.V.V.V.V.V.V.V.m.V.V.V.V.V.V.V.V.V.V.V.. . - - < < < < = o [ e.e.e.e.e.e.7.e.H i + X L.L.L.L.L.L.",
"L.L.L.L.L.L.L.L.L.L.. . V.M.C.V.M.V.V.V.V.V.V.V.V.V.V.V.V.V.V.V.V.V.V.. - < < < < < o o o <.e.e.e.e.e.e.e.e.J u 2 . L.L.L.L.L.L.",
"L.L.L.L.L.L.L.L.L.. . V.V.V.m.V.V.V.V.V.V.V.V.V.V.V.V.V.V.V.V.V.V.V.V.. ; < < < < o o u o ,.e.e.e.e.e.e.7.e.Q l 2 . L.L.L.L.L.L.",
"L.L.L.L.L.L.L.L.L.. V.V.V.V.V.V.V.V.V.V.V.V.V.V.V.V.V.V.V.V.V.V.V.V.V.. * < o o o o w u o :.e.e.e.e.e.7.e.e.F w 4 X L.L.L.L.L.L.",
"L.L.L.L.L.L.L.L.L.. . V.V.V.V.V.V.V.V.V.V.V.V.V.V.V.V.V.V.V.V.V.V.V.. & o o o u q u u u o ' e.e.e.e.e.e.3.W N u 3   L.L.L.L.L.L.",
"L.L.L.L.L.L.L.L.L.L.. V.V.V.V.V.V.V.V.V.V.V.V.V.V.V.V.V.V.V.V.v.V.V.. o o u q u u u u u o D e.e.e.e.;.K S M w p o . L.L.L.L.L.L.",
"L.L.L.L.L.L.L.L.L.L.. N.m.V.V.V.V.V.V.V.V.V.V.V.V.V.V.V.V.m.V.V.V.. . e.e.e.e.w w u u u o o ` e.3.J C i w w u o o . L.L.L.L.L.L.",
"L.L.L.L.L.L.L.L.L.L.. . N.m.V.V.V.V.V.V.V.V.V.V.V.V.V.V.V.V.V.V.V.. e.w.e.e.e.e.w e u u q o o ] ! m w q u u 6 o . X L.L.L.L.L.L.",
"L.L.L.L.L.L.L.L.L.L.L.. . Z.N.V.V.V.V.V.V.V.V.V.V.V.V.V.V.V.V.V.. . e.e.e.e.e.e.e.e.w u u w o o o h g g f > o o . L.L.L.L.L.L.L.",
"L.L.L.L.L.L.L.L.L.L.L.L.L.. . n.N.V.V.V.V.V.V.V.V.V.B.V.V.V.V.. . e.e.7.e.7.e.e.e.e.e.w u u w 5 o o o o o o o . . L.L.L.L.L.L.L.",
"L.L.L.L.L.L.L.L.L.L.L.L.L.L.L.. . . . . . . . . . . . . . . . e.e.e.3.e.e.e.e.3.e.e.e.z u u u u q j u u u u # . L.L.L.L.L.L.L.L.",
"L.L.L.L.L.L.L.L.L.L.L.L.L.L.L.L.. . w e.e.e.e.e.e.e.e.e.e.e.e.e.e.e.e.e.e.e.e.e.7.e.e.e.u u u u k u u u u u @ . L.L.L.L.L.L.L.L.",
"L.L.L.L.L.L.L.L.L.L.L.L.L.L.L.L.. w w e.e.e.e.e.e.e.e.e.e.e.e.e.e.e.e.e.e.e.e.e.e.7.e.e.u u w u u u u u u u u . . L.L.L.L.L.L.L.",
"L.L.L.L.L.L.L.L.L.L.L.L.L.L.L.L.. w e.e.e.e.e.e.e.e.e.e.7.e.e.e.e.e.e.e.e.e.e.e.e.e.7.e.e.u u w u u u u u u u O . L.L.L.L.L.L.L.",
"L.L.L.L.L.L.L.L.L.L.L.L.L.L.L.. . w e.e.e.e.e.e.e.e.e.e.e.e.e.e.e.e.e.e.e.e.e.e.e.e.e.e.e.~ u w u u u u u u u u . L.L.L.L.L.L.L.",
"L.L.L.L.L.L.L.L.L.L.L.L.L.L.L.. w w e.e.e.e.e.e.e.e.e.e.e.e.e.e.e.e.e.e.e.e.e.e.e.e.e.e.e.e.u u w u u u u u u u . L.L.L.L.L.L.L.",
"L.L.L.L.L.L.L.L.L.L.L.L.L.L.. . w w e.e.e.e.e.e.e.e.e.e.e.e.e.e.e.e.e.e.e.e.e.e.e.e.e.e.e.e.e.u w u u u u u u u . L.L.L.L.L.L.L.",
"L.L.L.L.L.L.L.L.L.L.L.L.L.L.. . w e.e.e.e.e.e.e.e.e.e.e.e.e.e.e.e.e.e.e.e.e.e.e.e.e.e.e.e.e.e.u w u u u u u u u X L.L.L.L.L.L.L.",
"L.L.L.L.L.L.L.X . . X L.L.L.. w w e.e.e.e.e.e.e.e.e.e.e.e.e.e.e.e.e.e.e.e.e.e.e.e.e.e.e.e.e.e.u u u u u k u u o . L.L.L.L.L.L.L.",
"L.L.L.L.L.L.L.X r y . . . . . w w e.e.e.e.e.e.e.e.e.e.e.e.e.e.e.e.e.e.e.e.e.e.e.e.e.e.e.e.e.e.e.u q u u u u o o . L.L.L.L.L.L.L.",
"L.L.L.L.L.L.L.. e 8 w e w w o o e.e.e.e.e.e.e.e.e.e.e.e.e.e.e.e.e.e.e.e.e.e.e.e.e.e.e.e.e.7.w.e.o u u u o o o . . L.L.L.L.L.L.L.",
"L.L.L.L.L.L.L.  . t 7 w w w o o e.e.e.e.e.e.e.e.e.e.e.e.e.e.e.e.e.e.e.e.e.e.e.e.e.e.e.e.7.e.e.o o o : o o o o . L.L.L.L.L.L.L.L.",
"L.L.L.L.L.L.L.L.. . w w w w o o o e.e.e.e.e.e.e.e.e.e.e.e.e.e.e.e.e.e.e.e.e.e.e.e.e.e.e.e.-.o o x.o o x.x.x.o . . . . L.L.L.L.L.",
"L.L.L.L.L.L.L.L.L.. . . w w w o o 3.e.e.e.e.e.e.e.e.e.e.e.e.e.e.e.e.e.e.e.e.e.e.e.e.e.e.e.e.o x.l.l.o x.z.l.o o o o X L.L.L.L.L.",
"L.L.L.L.L.L.L.L.L.L.L.. . w w o o o e.e.e.e.e.e.e.e.e.e.e.e.e.e.e.e.e.e.e.e.e.e.e.e.e.e.>.e.o x.l.h.j.l.k.l.o l.l.l.. L.L.L.L.L.",
"L.L.L.L.L.L.L.L.L.L.L.L.. . . w o o 3.e.7.e.e.e.e.e.e.e.e.e.e.e.e.e.e.e.e.e.e.e.e.e.e.e.e.o x.x.k.l.l.l.l.l.k.l.l.l.. L.L.L.L.L.",
"L.L.L.L.L.L.L.L.L.L.L.L.L.L.. . o o o w.e.e.e.e.e.e.e.e.e.e.e.e.e.e.e.e.e.e.e.e.e.e.e.3.e.o x.k.k.l.l.l.l.k.l.l.l.. L.L.L.L.L.L.",
"L.L.L.L.L.L.L.L.L.L.L.L.L.L.L.L.. . o o o o e.e.e.e.e.e.e.e.e.e.e.e.e.e.e.e.e.e.e.e.e.e.e.o x.k.l.l.l.l.l.l.l.l.. . L.L.L.L.L.L.",
"L.L.L.L.L.L.L.L.L.L.L.L.L.L.L.L.L.L.L.. . o o e.e.e.e.e.e.e.e.e.e.e.e.w w 9 p M B o o o o o x.k.l.l.l.k.l.l.l.. . L.L.L.L.L.L.L.",
"L.L.L.L.L.L.L.L.L.L.L.L.L.L.L.L.L.L.L.L.. . o o e.e.e.e.e.e.e.e.e.u u u u u p 0 o o . . o x.x.k.l.l.l.l.l.l.. . L.L.L.L.L.L.L.L.",
"L.L.L.L.L.L.L.L.L.L.L.L.L.L.L.L.L.L.L.L.L.. . o o w w q u q q q u u i p o o o o o . . . . x.x.k.l.l.l.l.l.. . L.L.L.L.L.L.L.L.L.",
"L.L.L.L.L.L.L.L.L.L.L.L.L.L.L.L.L.L.L.L.L.L.. . o o o o o o o o o o o o o . . . . L.L.L.. . l.l.l.l.l.. . . L.L.L.L.L.L.L.L.L.L.",
"L.L.L.L.L.L.L.L.L.L.L.L.L.L.L.L.L.L.L.L.. . . l.l.l.l.g.s.p.f.d.a.1 . . . L.L.L.L.L.L.L.L.. . l.l.. . . L.L.L.L.L.L.L.L.L.L.L.L.",
"L.L.L.L.L.L.L.L.L.L.L.L.L.L.L.L.L.L.L.. . l.l.l.l.l.l.l.l.l.l.l.l.l.l.. L.L.L.L.L.L.L.L.L.L.L.. . . L.L.L.L.L.L.L.L.L.L.L.L.L.L.",
"L.L.L.L.L.L.L.L.L.L.L.L.L.L.L.L.L.L.. . l.l.. . . l.l.l.l.l.l.l.l.l.l.. . L.L.L.L.L.L.L.L.L.L.L.L.L.L.L.L.L.L.L.L.L.L.L.L.L.L.L.",
"L.L.L.L.L.L.L.L.L.L.L.L.L.L.L.L.L.L.. . . . . . . . l.x.x.. . . . l.l.l.. L.L.L.L.L.L.L.L.L.L.L.L.L.L.L.L.L.L.L.L.L.L.L.L.L.L.L.",
"L.L.L.L.L.L.L.L.L.L.L.L.L.L.L.L.L.L.L.L.L.L.L.L.L.. . . . . . L.. . . . . L.L.L.L.L.L.L.L.L.L.L.L.L.L.L.L.L.L.L.L.L.L.L.L.L.L.L."
};
