/* XPM */
static char *result[] = {
/* columns rows colors chars-per-pixel */
"64 64 216 2 ",
"   c #2B2722",
".  c #2E2923",
"X  c #322E28",
"o  c #35322D",
"O  c #3A3735",
"+  c #3D3A35",
"@  c #413B32",
"#  c #5A4D32",
"$  c #725D2E",
"%  c #665534",
"&  c #7A612F",
"*  c #7D6533",
"=  c #7C673C",
"-  c #484643",
";  c #54524F",
":  c #585856",
">  c #6C624B",
",  c #746544",
"<  c #796A48",
"1  c #766A52",
"2  c #7C6E51",
"3  c #726B5B",
"4  c #7D7157",
"5  c #7B725C",
"6  c #676663",
"7  c #6D6C6A",
"8  c #736E62",
"9  c #7E7666",
"0  c #7A7875",
"q  c #84682E",
"w  c #8B6E2F",
"e  c #906F2D",
"r  c #98752E",
"t  c #816734",
"y  c #866C34",
"u  c #8A6E33",
"i  c #8D7134",
"p  c #967736",
"a  c #9C7B35",
"s  c #95793A",
"d  c #9D7E38",
"f  c #A37E33",
"g  c #8B7544",
"h  c #88754B",
"j  c #937A42",
"k  c #9B7F42",
"l  c #937D4C",
"z  c #867857",
"x  c #907D54",
"c  c #867A65",
"v  c #837B6B",
"b  c #857F73",
"n  c #A58135",
"m  c #AC8536",
"M  c #AF8837",
"N  c #A3823A",
"B  c #A9863B",
"V  c #AD8A3D",
"C  c #B08736",
"Z  c #B38A37",
"A  c #B48B38",
"S  c #B88F3A",
"D  c #B6913F",
"F  c #BC943C",
"G  c #C1973E",
"H  c #C49A3F",
"J  c #9D8249",
"K  c #9B8658",
"L  c #A38443",
"P  c #AD8C42",
"I  c #A78B4B",
"U  c #B18F44",
"Y  c #AE914D",
"T  c #B59244",
"R  c #BA9644",
"E  c #BF9A46",
"W  c #B4944C",
"Q  c #BA9748",
"!  c #B7984F",
"~  c #BB994A",
"^  c #A68B52",
"/  c #A98D52",
"(  c #A48C5D",
")  c #AD9257",
"_  c #AB925C",
"`  c #B39756",
"'  c #BA9A51",
"]  c #8C816A",
"[  c #96876B",
"{  c #8B8373",
"}  c #848079",
"|  c #8A867C",
" . c #8F897D",
".. c #918976",
"X. c #928B7B",
"o. c #97907E",
"O. c #9D947D",
"+. c #A38E64",
"@. c #AA9265",
"#. c #AB9769",
"$. c #AA956A",
"%. c #B49D64",
"&. c #B89F65",
"*. c #A18E72",
"=. c #A59475",
"-. c #AF9A73",
";. c #A4967B",
":. c #AC9A7B",
">. c #B29D7C",
",. c #BCA165",
"<. c #BBA46C",
"1. c #B6A274",
"2. c #B9A574",
"3. c #BAA579",
"4. c #B9A679",
"5. c #BBAA7C",
"6. c #C49C43",
"7. c #C99E42",
"8. c #C39D4A",
"9. c #CCA244",
"0. c #C5A04D",
"q. c #CCA54C",
"w. c #CFA84F",
"e. c #D1A746",
"r. c #D4A946",
"t. c #D0A748",
"y. c #D5AA49",
"u. c #DBAF4A",
"i. c #DCB04A",
"p. c #C4A253",
"a. c #CFA850",
"s. c #D1A951",
"d. c #C3AD77",
"f. c #898783",
"g. c #938E82",
"h. c #908F8E",
"j. c #979085",
"k. c #95928C",
"l. c #99958E",
"z. c #9F9A8D",
"x. c #959595",
"c. c #999792",
"v. c #9F9C95",
"b. c #9B9A99",
"n. c #A59B84",
"m. c #A79D84",
"M. c #A29E95",
"N. c #A29F99",
"B. c #B4A383",
"V. c #BBA685",
"C. c #BCAB86",
"Z. c #B1A589",
"A. c #BBA788",
"S. c #B7A98B",
"D. c #BCAA8B",
"F. c #BCB28E",
"G. c #A4A19A",
"H. c #AAA59A",
"J. c #B4AB90",
"K. c #BAAE92",
"L. c #BDB395",
"P. c #A6A4A2",
"I. c #AAA9A6",
"U. c #AEAEAC",
"Y. c #B0AEAB",
"T. c #B2B1AE",
"R. c #B6B5B5",
"E. c #BBB9B7",
"W. c #BCBCBB",
"Q. c #C0AD8C",
"!. c #C4B38C",
"~. c #CCBA8E",
"^. c #C3B594",
"/. c #CAB996",
"(. c #C4BA9B",
"). c #CABC9C",
"_. c #D0BF9D",
"`. c #C5BDA1",
"'. c #CBBFA1",
"]. c #CDC09F",
"[. c #D4C49B",
"{. c #CCC2A3",
"}. c #D2C5A5",
"|. c #D6C8A5",
" X c #D9CBA5",
".X c #D6CAAA",
"XX c #DACDAB",
"oX c #DDD0AD",
"OX c #C6C4BC",
"+X c #DFD2B0",
"@X c #D3D0BE",
"#X c #E4D7B4",
"$X c #E5D8B5",
"%X c #C4C3C3",
"&X c #C9C8C5",
"*X c #CCCCCC",
"=X c #D0CFCC",
"-X c #D8D6C9",
";X c #D5D5D5",
":X c #DBDBDB",
">X c #E5E4D5",
",X c #E8E6D7",
"<X c #ECEBDE",
"1X c #DEDFE0",
"2X c #E4E4E4",
"3X c #EEEEE2",
"4X c #E6E7E9",
"5X c #EBEBEC",
"6X c #F1F0E5",
"7X c #F5F5EB",
"8X c #EEEFF0",
"9X c #EFF0F1",
"0X c #F3F4F4",
"qX c #F6F7F9",
"wX c #F7F8FC",
"eX c #FFFFFF",
/* pixels */
"wXeXwXwXeXwXeXeXwXeXeXwXeXwXwXeXwXeXeXwXeXwXwXeXwXeXeXwXeXeXwXeXwXwXeXwXeXE.O &XwXwXeXwXeXeXwXeXwXwXeXwXwXeXwXeXeXwXeXwXeXeXwXeX",
"eXeXeXeXeXeXeXeXeXeXeXeXeXeXeXeXeXeXeXeXeXeXeXeXeXeXeXeXeXeXeXeX0XeXeXeX0X7   b.eXeXeXeXeXeXeXeXeXeXeXeXeXeXeXeXeXeXeXeXeXeXeXeX",
"eXeXeXeXeXeXeXeXeXeXeXeXeXeXeXeXeXeXeXeXeXeXeXeXeXeXeXeXeXeXwXP.: 2XeXeXE.X + :XeXeXeXeXeXeXeXeXeXeXeXeXeXeXeXeXeXeXeXeXeXeXeXeX",
"eXeXeXeXeXeXeXeXeXeXeXeXeXeXeXeXeXeXeXeXeXeXeXeXeXeXeXeXeXeX*X+ X b.eX8X:   7 wXeXeXeXeXeXeXeXeXeXeXeXeXeXeXeXeXeXeXeXeXeXeXeXeX",
"eXeXeXeXeXeXeXeXeXeXeXeXeXeXeXeXeXeXeXeXeXeXeXeXeXeXeXeXeXeX0X}   6 0XR.o + %XeXeX5X*XE.eXeXeXeXeXeXeXeXeXeXeXeXeXeXeXeXeXeXeXeX",
"eXeXeXeXeXeXeXeXeXeXeXeXeXeXeXeXeXeXeXeXeXeXeXeXeXeXeXeXeXeXeX*Xo O *X}   0 qX2Xb.; o ; qXeXeXeXeXeXeXeXeXeXeXeXeXeXeXeXeXeXeXeX",
"eXeXeXeXeXeXeXeXeXeXeXeXeXeXeXeXeXeXeXeXeXeXeXeXeXeXeXeXeXeXeX0X7 . 0 @ X x.h.-   . - c.wXeXeXeXeXeXeXeXeXeXeXeXeXeXeXeXeXeXeXeX",
"eXeXeXeXeXeXeXeXeXeXeXeXeXeXeXeXeXeXeXeXeXeXeXeXeXeXeXeXeXeXeXwX%Xo o o + - . + 7 b.2XeXeXeXeXeXeXeXeXeXeXeXeXeXeXeXeXeXeXeXeXeX",
"eXeXeXeXeXeXeXeXeXeXeXeXeXeXeXeXeXeXeXeXeXeXeXeXeXeX4X&XG.G.G...f.# % # + + P.:XwXeXeXeXeXeXeXeXeXeXeXeXeXeXeXeXeXeXeXeXeXeXeXeX",
"eXeXeXeXeXeXeXeXeXeXeXeXeXeXeXeXeXeXeX0XOXv.G.v.G.z.z s V V V D T 0.9.8.R J o.G.OXeXeXeXeXeXeXeXeXeXeXeXeXeXeXeXeXeXeXeXeXeXeXeX",
"eXeXeXeXeXeXeXeXeXeXeXeXeXeXeXeXeX8XE.[ g u i p N T t.u.i.i.i.i.u.u.u.u.u.y.R B h z.:XwXeXeXeXeXeXeXeXeXeXeXeXeXeXeXeXeXeXeXeXeX",
"eXeXeXeXeXeXeXeXeXeXeXeXeXeXeXeX0X} j 8.8.P 0.y.i.u.u.u.u.u.i.y.u.u.u.u.u.i.i.i.E t = H.wXeXeXeXeXeXeXeXeXeXeXeXeXeXeXeXeXeXeXeX",
"eXeXeXeXeXeXeXeXeXeXeXeXeXeXeXeXE.j a.~ 9.t.i.u.u.i.u.u.u.u.i.i.u.u.u.u.u.u.u.u.9.n a y  .*XwXeXeXeXeXeXeXeXeXeXeXeXeXeXeXeXeXeX",
"eXeXeXeXeXeXeXeXeXeXeXeXeXeXeX=XK 0.~ 0.y.u.u.u.u.u.i.u.u.u.u.u.u.u.u.i.i.u.u.u.u.E a N w < OXwXqX2XwXeXeXeXeXeXeXeXeXeXeXeXeXeX",
"eXeXeXeXeXeXeXeXeXeXeXeXeXwX&XK 9.~ R e.9.0.e.y.u.u.u.u.u.u.u.u.u.u.u.u.u.u.u.u.u.t.D N N N g z.g.> &XeXeXeXeXeXeXeXeXeXeXeXeXeX",
"eXeXeXeXeXeXeXeXeXeXeXeXeXOXl 0.0.T ! <.[.~.5.~ y.u.u.i.u.u.u.u.u.u.t.8.R R 8.t.u.y.E a N y.y.F 8.a T.eXeXeXeXeXeXeXeXeXeXeXeXeX",
"eXeXeXeXeXeXeXeXeXeXeXeX2X[ R a.T W ).<X7X7X<XF.! y.i.u.u.u.u.u.y.~ <.L.].L.L.<.8.R N A 6.u.u.i.i.H c qXeXeXeXeXeXeXeXeXeXeXeXeX",
"eXeXeXeXeXeXeXeXeXeXeXwXj.P s.0.P &.<X7X>X@X7X3X2.y.i.i.u.u.u.y.! ].<X7X3X7X7X>XC.W P e.u.u.u.u.u.e.z 8XeXeXeXeXeXeXeXeXeXeXeXeX",
"eXeXeXeXeXeXeXeXeXeXeX*Xg a.s.Q T ,.<X7X>X-X7X6X5.r.u.i.y.i.i.0.5.3X7X3X@X3X7X7X>X%.E U r.u.u.u.u.u.D z.5XeXeXeXeXeXeXeXeXeXeXeX",
"eXeXeXeXeXeXeXeXeXeX0X..R s.s.~ 8.8.!.,X7X7X3X`.` 0.y.u.i.i.u.9.#.<X7X7X<X6X7X0X>X,.w.V 7.u.u.u.u.u.y.w U.eXeXeXeXeXeXeXeXeXeXeX",
"eXeXeXeXeXeXeXeXeXeX*Xg s.a.a.~ 9.y.E %.(.`.C.Y R ` _ R q.i.i.y.p.(.>X7X7X7X7X>XF.p.y.P E u.u.u.u.u.i.F 4 *XeXeXeXeXeXeXeXeXeXeX",
"eXeXeXeXeXeXeXeXeXeXR.s s.a.a.~ 8.i.y.R P T Y ,.[.oX{.-.^ T 9.q.q.! %.L.{.{.L.%.p.y.y.V A u.u.u.u.u.u.y.a z 2XeXeXeXeXeXeXeXeXeX",
"eXeXeXeXeXeXeXeXeXqX9 N w.s.a.~ T t.W 1.2.2.C.oX$X.XD.C.:.@.@._ Y ! Y P ! 0.0.t.i.y.9.N N y.u.u.u.u.u.u.9.f c 5XeXeXeXeXeXeXeXeX",
"eXeXeXeXeXeXeXeXeXwX3 r T q.a.0.V T 5.#X$XoXL.+X#X^.:.[ [ K.XXXX X[.].#./ T u.i.i.y.V a B y.u.u.u.u.u.u.y.G w G.wXeXeXeXeXeXeXeX",
"eXeXeXeXeXeXeXeXeXwXl.q N R a.a.P _  X#X#X#X.X#XXXZ.*.m.].+X#X#X$X$XXXQ.B./ y.u.y.T N d N u.u.u.u.u.u.u.i.H Z t %XeXeXeXeXeXeXeX",
"eXeXeXeXeXeXeXeXeXeXW.$ N P q.~ ) ].#X#X#X#X#X#XXXL.(.oX#X#X#X#X$X+X).C.>.I e.7.U d d d N r.u.u.u.u.u.u.i.r.S f c 0XeXeXeXeXeXeX",
"eXeXeXeXeXeXeXeXeXeX:X< r N ' d..X#X#X#X$X#X#X#X#X#X#X#X#X#X#X#X#X].B.B.( d B N f N f d B y.u.u.u.u.u.u.i.u.H A * OXeXeXeXeXeXeX",
"eXeXeXeXeXeXeXeXeXeXeXc.g d. X#X#X#X#X#X#X#X#X#X#X#X#X#X#X#X$X#XoXS.C.$.s N d f d d L d N u.u.u.u.u.u.u.u.u.H A r g.wXeXeXeXeXeX",
"eXeXeXeXeXeXeXeXeXeX;Xz.).#X#X#X#X#X#X#X#X$X$X#X#X#X#X#X#X#X#X$X XD.>.J d N d d f k d s f y.u.u.u.u.u.u.u.u.H Z n 1 0XeXeXeXeXeX",
"eXeXeXeXeXeXeXeXeX=Xn..X$X#X#X#X#X#X$X#X#X#X#X#X#X#X#X#X$X#X#X#X'.A.@.a N d N d a a f f B u.i.u.u.u.u.u.u.u.e.S m 1 0XeXeXeXeXeX",
"eXeXeXeXeXeXeXeX0X| .X#X#X#X#X#X#X#X#X#X#X#X#X#X#X#X#X#X#X$X#X$X).A.+.a d d d n B m Z B N u.u.u.u.u.u.u.u.u.H Z m 1 0XeXeXeXeXeX",
"eXeXeXeXeXeXeXeX*XX.#X#X#X#X#X#X#X#X#X#X$X#X#X$X#X#X#X#X#X#X#X#X_.B.K a f N M A Z Z Z M N y.u.u.u.u.u.u.u.9.F Z n < 0XeXeXeXeXeX",
"eXeXeXeXeXeXeXeXU.O.#X#X$X#X$X#X#X#X#X#X#X#X#X#X#X#X#X#X#X#X#X#X/.>.j m Z Z A A A A Z Z f 6.i.u.u.i.y.9.6.S C A r j.qXeXeXeXeXeX",
"eXeXeXeXeXeXeXeX5X| |.#X#X#X#X#X#X#X$X#X#X#X#X#X#X#X#X#X#X#X#XXXQ.$.U e.7.S A Z Z A A A M B r.i.u.7.G A Z Z A Z & W.eXeXeXeXeXeX",
"eXeXeXeXeXeXeXeXeX*Xj.oX#X#X$X#X$X#X$X#X#X$X#X#X#X#X#X#X#X#X#X(.V._ 7.u.i.y.7.S Z Z A A A f U y.e.S Z Z A A C y M.0XeXeXeXeXeXeX",
"eXeXeXeXeXeXeXeXeXwXG.X.|.#X#X$X#X#X#X#X#X#X#X#X#X#X#X#X#X#X'.V.@.6.u.u.i.u.u.e.G Z Z Z A Z f B S Z m m B f & M.qXeXeXeXeXeXeXeX",
"eXeXeXeXeXeXeXeXeXeXqX;Xz.J.}.#X$X#X#X#X#X#X#X#X#X#X#X+X|.^.B.@.U r.u.u.u.u.u.u.y.6.A Z Z A Z m f f p p f a % ;XeXeXeXeXeXeXeXeX",
"eXeXeXeXeXeXeXeXeXeXeXeX2XG.k.X.L.XX#X$X#X#X#X#XXX{.^.S.-._ W p.y.u.u.u.u.u.u.u.u.u.e.A Z A Z A A M C B C Z y N.eXeXeXeXeXeXeXeX",
"eXeXeXeXeXeXeXeXeXeXeXeXeXeX7X:XX.K 3.3.3.3.4.1.$.K I U R 9.y.u.i.u.u.u.u.u.u.u.u.u.u.7.A Z A A A A A Z A Z f v eXeXeXeXeXeXeXeX",
"eXeXeXeXeXeXeXeXeXeXeXeXeXeXeX4Xz 9.t.9.6.R 6.6.9.e.y.y.u.u.u.y.u.u.u.u.u.u.u.u.u.u.u.u.7.A Z Z A A A A A A f h :XeXeXeXeXeXeXeX",
"eXeXeXeXeXeXeXeXeXeXeXeXeXeXeXT.d i.u.u.u.u.u.u.u.i.u.i.y.i.u.i.u.u.u.i.u.u.u.u.u.u.u.u.r.G Z Z Z A Z A Z Z Z & %XeXeXeXeXeXeXeX",
"eXeXeXeXeXeXeXeXeXeXeXeXeXeXeXG.B i.u.u.u.i.u.i.u.i.u.u.i.i.u.u.u.u.u.u.u.u.i.u.u.u.u.u.u.e.A Z A A A A A Z S e l.eXeXeXeXeXeXeX",
"eXeXeXeXeXeXeXeXeXeXeXeXeXeX5X2 7.i.u.u.u.i.u.i.u.u.u.i.i.i.i.u.u.u.u.u.u.u.i.u.u.u.u.u.u.u.H A Z A Z A A A Z f 5 wXeXeXeXeXeXeX",
"eXeXeXeXeXeXeXeXeXeXeXeXeXeX5X2 r.i.u.u.u.u.u.u.u.i.u.u.i.y.i.i.u.u.u.u.u.u.u.u.i.u.u.u.u.u.e.A Z A A A A Z S f 5 wXeXeXeXeXeXeX",
"eXeXeXeXeXeXeXeXeXeXeXeXeXeX3X2 t.i.u.u.i.u.u.u.u.u.u.u.u.u.u.u.i.u.u.u.u.u.u.u.u.u.u.u.u.u.r.A Z A Z A A Z A f 5 wXeXeXeXeXeXeX",
"eXeXeXeXeXeX5Xk.X.G.;X;X:XwX5X2 r.u.u.u.u.u.u.u.u.u.u.u.u.u.u.u.u.u.u.u.u.u.u.u.u.u.u.u.u.u.y.T Z A A A Z Z A n 5 wXeXeXeXeXeXeX",
"eXeXeXeXeXeX2X% V L g g h X.{ j u.u.u.u.u.u.i.u.u.i.u.u.i.u.u.u.u.u.u.i.u.i.u.u.u.u.u.u.u.u.u.6.Z A Z A Z C N p v wXeXeXeXeXeXeX",
"eXeXeXeXeXeX0XX.s E a.s.w.E N A u.u.i.u.u.u.u.u.u.u.u.u.u.u.i.u.u.u.u.u.u.u.u.u.u.u.u.i.i.u.u.6.d m Z Z B ) C.z W.eXeXeXeXeXeXeX",
"eXeXeXeXeXeXeX5XX.a R q.a.a.V B e.u.u.u.u.u.u.u.u.u.u.u.u.u.u.u.u.u.u.u.u.u.u.u.u.u.u.u.u.u.e.` Q.^ f k 3.XXXXv =XeXeXeXeXeXeXeX",
"eXeXeXeXeXeXeXeX;X4 i N R ~ N N 9.i.u.u.u.u.u.u.u.i.u.u.u.u.u.u.u.i.u.u.u.u.u.u.u.u.u.u.u.y.Q ~..X~.3./.'./.D.v P.k.h.%XeXeXeXeX",
"eXeXeXeXeXeXeXeXeX4X9 q N N N d F i.u.u.u.i.u.u.u.i.u.u.i.u.u.u.u.u.u.u.u.u.u.u.u.u.u.u.u.9.1.XXQ.D._.).V.V.V.:.O.^.v &XeXeXeXeX",
"eXeXeXeXeXeXeXeXeXeX:X .$ a N d B e.u.u.u.u.u.u.u.u.u.u.u.u.u.u.u.u.u.u.u.u.u.u.u.u.u.u.y.' [._.A.V.V.V.V.V.V.V.^.=.k.qXeXeXeXeX",
"eXeXeXeXeXeXeXeXeXeXeX5Xk.< e N N T u.u.u.u.u.u.u.u.u.u.u.u.u.u.i.u.u.u.u.u.u.u.u.u.u.u.7.>. XQ.V.V.V.V.V.V.V.V.>.{ ;XeXeXeXeXeX",
"eXeXeXeXeXeXeXeXeXeXeXeXwX&X] * u N 9.u.u.u.u.u.u.u.u.u.u.u.i.i.u.r.r.r.y.u.u.u.u.u.u.u.Q /._.V.V.V.V.V.V.V.V.V.c W.eXeXeXeXeXeX",
"eXeXeXeXeXeXeXeXeXeXeXeXeXeX0XI.X., y F u.u.i.u.u.i.i.u.u.y.e.H 6.Z Z S H 6.7.r.r.r.7.H I }.Q.V.V.A.V.Q.Q.V.V.[ Y.qXeXeXeXeXeXeX",
"eXeXeXeXeXeXeXeXeXeXeXeXeXeXeXeXwX4XW.] s H r.r.t.y.t.9.G S Z Z C Z Z Z Z C S S A S Z C / |.Q.V.V.V.V.V.V.V.*.g.qXeXeXeXeXeXeXeX",
"eXeXeXeXeXeXeXeXeXeXeXeXeXeXeXeXeXeXeX0Xc.* m A A S F A C A A C Z Z Z A Z A A A C n r q h .XQ.V.V.V.V.V.V.*.j.2XeXeXeXeXeXeXeXeX",
"eXeXeXeXeXeXeXeXeXeXeXeXeXeXeXeXeXeXeXeXwX%X4 y m Z C A A A A A Z Z Z Z Z f e t , > j.T.| ^./.V.V.V.Q.>.c k.5XeXeXeXeXeXeXeXeXeX",
"eXeXeXeXeXeXeXeXeXeXeXeXeXeXeXeXeXeXeXeXeXeXU.4 l L L V m A A m m m a q = 5 N.&X5X5XeXeX1X| m.B.B.:.[ b *X0XeXeXeXeXeXeXeXeXeXeX",
"eXeXeXeXeXeXeXeXeXeXeXeXeXeXeXeXeXeXeXeXwXE...B.:.=.;.+.( ( +.K +.x 3 P.;X9XeXeXeXeXeXeXeX%XM.v c b P.;XeXeXeXeXeXeXeXeXeXeXeXeX",
"eXeXeXeXeXeXeXeXeXeXeXeXeXeXeXeXeXeXeXwXR.J.oX#X.X]./.D.S.B.B.S.S.D.g.;XeXeXeXeXeXeXeXeXeXeXeX5X4X9XeXeXeXeXeXeXeXeXeXeXeXeXeXeX",
"eXeXeXeXeXeXeXeXeXeXeXeXeXeXeXeXeXeXeXE.v S.Z.O.Z..X$X+X+XXXXX+X#X#X(.f.eXeXeXeXeXeXeXeXeXeXeXeXeXeXeXeXeXeXeXeXeXeXeXeXeXeXeXeX",
"eXeXeXeXeXeXeXeXeXeXeXeXeXeXeXeXeXeXeX5XU.I.I.P.I. .{.#X).m.;.Z.K.K.m.} wXeXeXeXeXeXeXeXeXeXeXeXeXeXeXeXeXeXeXeXeXeXeXeXeXeXeXeX",
"wXeXeXwXeXwXwXeXwXeXeXwXeXwXwXeXwXwXeXwXeXeXeXeXwXU.3 8 0 c.h.b.b.b.b.R.eXeXwXeXwXwXeXwXeXeXwXeXeXwXeXwXwXeXwXeXeXwXeXwXwXeXwXeX"
};
