/* XPM */
static char *_d7d4664e28845bfa8130f4ca1bc1ed1lOhgmXHIkkr7saWS[] = {
/* columns rows colors chars-per-pixel */
"64 64 4 1 ",
"  c None",
". c black",
"X c #5B6EE1",
"o c #5FCDE4",
/* pixels */
"oooooooooooooooooooooooooooooooooooooooooooooooooooooooooooooooo",
"oooooooooooooooooooooooooooooooooooooooooooooooooooooooooooooooo",
"oooooooooooooooooooooooooooooooooooooooooooooooooooooooooooooooo",
"oooooooooooooooooooooooooooooooooooooooooooooooooooooooooooooooo",
"oooooooooooooooooooooooooooooooooooooooooooooooooooooooooooooooo",
"oooooooooooooooooooooooooooooooooooooooooooooooooooooooooooooooo",
"oooooooooooooooooooooooooooooooooooooooooooooooooooooooooooooooo",
"oooooooooooooooooooooooooooooooooooooooooooooooooooooooooooooooo",
"oooooooooooooooooooooooooooooooooooooooooooooooooooooooooooooooo",
"oooooooooooooooooooooooooooo.........ooooooooooooooooooooooooooo",
"oooooooooooooooooooooo.......        ...oooooooooooooooooooooooo",
"ooooooooooooooooooooo..                ...oooooooooooooooooooooo",
"oooooooooooooooooooo..                   ...oooooooooooooooooooo",
"oooooooooooooooooooo.                      ..ooooooooooooooooooo",
"ooooooooooooooooooo..                       ..oooooooooooooooooo",
"ooooooooooooooooooo.                         .oooooooooooooooooo",
"ooooooooooooooooooo.      ...      ....      .oooooooooooooooooo",
"oooooooooooooooooo.       .X.      .XX.      .oooooooooooooooooo",
"oooooooooooooooooo.       .X.      .X..      .oooooooooooooooooo",
"oooooooooooooooooo.       ...      .X..      .oooooooooooooooooo",
"oooooooooooooooooo.             .  ....      .oooooooooooooooooo",
"oooooooooooooooooo.             .            .oooooooooooooooooo",
"oooooooooooooooooo.             .            .oooooooooooooooooo",
"ooooooooooooooooo.              .            .oooooooooooooooooo",
"ooooooooooooooooo.                          .ooooooooooooooooooo",
"ooooooooooooooooo.                          .ooooooooooooooooooo",
"ooooooooooooooooo.                          .ooooooooooooooooooo",
"ooooooooooooooooo.                          .ooooooooooooooooooo",
"ooooooooooooooooo..        ...........      .ooooooooooooooooooo",
"oooooooooooooooooo.                        .oooooooooooooooooooo",
"oooooooooooooooooo..                       .oooooooooooooooooooo",
"ooooooooooooooooooo..                      .oooooooooooooooooooo",
"oooooooooooooooooooo..                    .ooooooooooooooooooooo",
"ooooooooooooooooooooo...                 .oooooooooooooooooooooo",
"ooooooooooooooooooooooo........         ..oooooooooooooooooooooo",
"ooooooooooooooooooooooooooooooo.........oooooooooooooooooooooooo",
"oooooooooooooooooooooooooooooooooooooooooooooooooooooooooooooooo",
"oooooooooooooooooooooooooooooooooooooooooooooooooooooooooooooooo",
"oooooooooooooooooooooooooooooooooooooooooooooooooooooooooooooooo",
"oooooooooooooooooooooooooooooooooooooooooooooooooooooooooooooooo",
"oooooooooooooooooooooooooooooooooooooooooooooooooooooooooooooooo",
"oooooooooooooooooooooooooooooooooooooooooooooooooooooooooooooooo",
"oooooooooooooooooooooooooooooooooooooooooooooooooooooooooooooooo",
"oooooooooooooooooooooooooooooooooooooooooooooooooooooooooooooooo",
"oooooooooooooooooooooooooooooooooooooooooooooooooooooooooooooooo",
"oooooooooooooooooooooooooooooooooooooooooooooooooooooooooooooooo",
"oooooooooooooooooooooooooooooooooooooooooooooooooooooooooooooooo",
"oooooooooooooooooooooooooooooooooooooooooooooooooooooooooooooooo",
"oooooooooooooooooooooooooooooooooooooooooooooooooooooooooooooooo",
"oooooooooooooooooooooooooooooooooooooooooooooooooooooooooooooooo",
"oooooooooooooooooooooooooooooooooooooooooooooooooooooooooooooooo",
"oooooooooooooooooooooooooooooooooooooooooooooooooooooooooooooooo",
"oooooooooooooooooooooooooooooooooooooooooooooooooooooooooooooooo",
"oooooooooooooooooooooooooooooooooooooooooooooooooooooooooooooooo",
"oooooooooooooooooooooooooooooooooooooooooooooooooooooooooooooooo",
"oooooooooooooooooooooooooooooooooooooooooooooooooooooooooooooooo",
"oooooooooooooooooooooooooooooooooooooooooooooooooooooooooooooooo",
"oooooooooooooooooooooooooooooooooooooooooooooooooooooooooooooooo",
"oooooooooooooooooooooooooooooooooooooooooooooooooooooooooooooooo",
"oooooooooooooooooooooooooooooooooooooooooooooooooooooooooooooooo",
"oooooooooooooooooooooooooooooooooooooooooooooooooooooooooooooooo",
"oooooooooooooooooooooooooooooooooooooooooooooooooooooooooooooooo",
"oooooooooooooooooooooooooooooooooooooooooooooooooooooooooooooooo",
"oooooooooooooooooooooooooooooooooooooooooooooooooooooooooooooooo"
};
